HIERARCHY
ROOT RootJoint
{
    OFFSET   0.000000   0.000000   0.000000
    CHANNELS 6 Xposition Yposition Zposition Xrotation Yrotation Zrotation
    JOINT pelvis_lowerback
    {
        OFFSET   0.000000   0.093605   0.000000
        CHANNELS 3 Xrotation Yrotation Zrotation
        JOINT lowerback_torso
        {
            OFFSET   0.000000   0.100000   0.000000
            CHANNELS 3 Xrotation Yrotation Zrotation
            JOINT torso_head
            {
                OFFSET   0.000000   0.282350   0.000000
                CHANNELS 3 Xrotation Yrotation Zrotation
                End Site
                {
                    OFFSET   0.000000   0.192650   0.000000
                }
            }
            JOINT rTorso_Clavicle
            {
                OFFSET  -0.001000   0.157500   0.000000
                CHANNELS 3 Xrotation Yrotation Zrotation
                JOINT rShoulder
                {
                    OFFSET  -0.117647   0.000000   0.000000
                    CHANNELS 3 Xrotation Yrotation Zrotation
                    JOINT rElbow
                    {
                        OFFSET  -0.245000   0.000000   0.000000
                        CHANNELS 3 Xrotation Yrotation Zrotation
                        JOINT rWrist
                        {
                            OFFSET  -0.240000   0.000000   0.000000
                            CHANNELS 3 Xrotation Yrotation Zrotation
                            End Site
                            {
                                OFFSET  -0.116353  -0.002500   0.000000
                            }
                        }
                    }
                }
            }
            JOINT lTorso_Clavicle
            {
                OFFSET   0.001000   0.157500   0.000000
                CHANNELS 3 Xrotation Yrotation Zrotation
                JOINT lShoulder
                {
                    OFFSET   0.117647   0.000000   0.000000
                    CHANNELS 3 Xrotation Yrotation Zrotation
                    JOINT lElbow
                    {
                        OFFSET   0.245000   0.000000   0.000000
                        CHANNELS 3 Xrotation Yrotation Zrotation
                        JOINT lWrist
                        {
                            OFFSET   0.240000   0.000000   0.000000
                            CHANNELS 3 Xrotation Yrotation Zrotation
                            End Site
                            {
                                OFFSET   0.116353  -0.002500   0.000000
                            }
                        }
                    }
                }
            }
        }
    }
    JOINT rHip
    {
        OFFSET  -0.100000  -0.051395   0.000000
        CHANNELS 3 Xrotation Yrotation Zrotation
        JOINT rKnee
        {
            OFFSET   0.000000  -0.410000   0.000000
            CHANNELS 3 Xrotation Yrotation Zrotation
            JOINT rAnkle
            {
                OFFSET   0.000000  -0.390000   0.000000
                CHANNELS 3 Xrotation Yrotation Zrotation
                JOINT rToeJoint
                {
                    OFFSET   0.000000  -0.050000   0.130000
                    CHANNELS 3 Xrotation Yrotation Zrotation
                    End Site
                    {
                        OFFSET  -0.010000   0.002000   0.060000
                    }
                }
            }
        }
    }
    JOINT lHip
    {
        OFFSET   0.100000  -0.051395   0.000000
        CHANNELS 3 Xrotation Yrotation Zrotation
        JOINT lKnee
        {
            OFFSET   0.000000  -0.410000   0.000000
            CHANNELS 3 Xrotation Yrotation Zrotation
            JOINT lAnkle
            {
                OFFSET   0.000000  -0.390000   0.000000
                CHANNELS 3 Xrotation Yrotation Zrotation
                JOINT lToeJoint
                {
                    OFFSET   0.000000  -0.050000   0.130000
                    CHANNELS 3 Xrotation Yrotation Zrotation
                    End Site
                    {
                        OFFSET   0.010000   0.002000   0.060000
                    }
                }
            }
        }
    }
}
MOTION
Frames: 8
Frame Time:   0.008333
 -2.576213   0.504756   3.268886  -9.766327  26.977224 -12.737107  66.407367  -2.711938  13.713511   7.420950 -11.908072   1.680120  -7.667970   4.616531   1.062833  -0.338830  -0.949458   4.873698  19.371064  -9.298067  46.216013  -0.008462  38.659119   0.007807  -0.624206   6.909321   5.652945  -8.536420 -20.242122  -1.675223 -20.981979 -19.832901  -9.880058  -0.000059 -42.392421  -0.000703   3.463946  -5.227745  13.425503 -71.341577  -3.153216 -10.010288 110.681130   0.009068  -0.007721 -33.696725  -6.872707  11.052659   2.884455  -0.002675   0.002578 -42.980852 -18.559355  32.567238 124.827670   0.008129  -0.014541 -70.011686  -2.229268  -1.980598   1.854594   0.001957   0.000821
 -2.580051   0.504870   3.272503  -8.975117  26.553027 -12.352315  65.915468  -2.988206  13.634963   7.211162 -11.974349   1.862326  -7.732571   4.964586   0.939284  -0.021279  -1.346038   4.709047  19.407339  -9.533007  46.129902  -0.007852  38.348322   0.006937  -0.515134   7.063188   5.597016  -8.484032 -20.308015  -1.376493 -21.034893 -19.351475  -9.814633   0.000045 -42.174066  -0.002076   3.484320  -5.248757  13.351141 -70.721513  -2.889907 -10.234738 109.973885   0.009565  -0.004869 -33.788105  -7.203044  10.753786   3.034971  -0.001943   0.000995 -43.365665 -18.272824  32.482858 124.422002   0.008109  -0.013195 -70.017374  -2.196814  -2.363301   2.127598   0.001073   0.000140
 -2.583892   0.504738   3.275972  -8.134846  26.118475 -11.902229  65.393851  -3.305621  13.511371   6.997099 -12.077015   2.036609  -7.770414   5.294040   0.813173   0.317699  -1.776410   4.527274  19.476806  -9.791064  46.040496  -0.007212  38.044677   0.006191  -0.407557   7.201838   5.538843  -8.461479 -20.363981  -1.023596 -21.094637 -18.912741  -9.702391   0.000301 -41.966206  -0.003089   3.504595  -5.232644  13.257397 -70.049757  -2.701139 -10.466847 108.816477   0.012464  -0.002353 -33.878322  -7.511929  10.473062   3.237630  -0.001604  -0.000502 -43.828547 -17.953092  32.296404 124.032471   0.008157  -0.011960 -70.024030  -2.192478  -2.737526   2.365668   0.000427  -0.000495
 -2.587745   0.504177   3.279541  -7.301647  25.674139 -11.396138  64.856714  -3.645450  13.363281   6.775762 -12.208045   2.186024  -7.799519   5.601718   0.691962   0.671074  -2.227352   4.336724  19.574500 -10.067678  45.950790  -0.006606  37.744943   0.005526  -0.297301   7.266001   5.464041  -8.458074 -20.405260  -0.663964 -21.159643 -18.507347  -9.571065   0.000612 -41.775077  -0.003709   3.527082  -5.223270  13.204267 -69.351401  -2.557405 -10.674712 107.564691   0.015815  -0.000721 -33.965856  -7.798989  10.210556   3.440949  -0.001520  -0.001628 -44.288646 -17.626884  32.081822 123.705853   0.008029  -0.010770 -70.031010  -2.225218  -3.081063   2.480072   0.000079  -0.000752
 -2.591454   0.504351   3.283883  -7.074857  25.611918 -10.879515  64.817214  -3.876184  13.442454   6.812920 -12.337528   2.445004  -7.811409   5.888193   0.585010   0.983292  -2.611631   4.161704  19.651338 -10.316019  45.861432  -0.006121  37.463973   0.005244  -0.190604   7.283199   5.364942  -8.483362 -20.498628  -0.295807 -21.238873 -18.155758  -9.423108   0.000724 -41.592595  -0.004223   3.541796  -5.182247  13.226285 -69.776431  -2.461152 -11.005059 108.132265   0.010015  -0.000533 -33.745592  -8.172960  10.288466   3.966309  -0.003458  -0.004657 -44.098226 -17.400817  32.144040 123.307359   0.007155  -0.010444 -70.034881  -2.225142  -3.298521   2.605064  -0.000329  -0.000581
 -2.594777   0.505417   3.287935  -6.803968  25.573432 -10.475853  64.814972  -4.062312  13.599280   6.883652 -12.441959   2.727889  -7.816464   6.156526   0.483287   1.253411  -2.939278   3.998204  19.701726 -10.532317  45.761307  -0.005760  37.205766   0.005164  -0.087793   7.301908   5.240547  -8.512805 -20.608128   0.044905 -21.320055 -17.844458  -9.285841   0.000574 -41.428641  -0.004636   3.560444  -5.161548  13.289001 -70.078374  -2.428141 -11.180633 108.497238   0.006649   0.000008 -33.609003  -8.433870  10.192270   4.144079  -0.003230  -0.004423 -43.930317 -17.188849  32.178562 122.807192   0.006600  -0.010232 -70.039178  -2.332850  -3.510855   2.912949  -0.001012  -0.000787
 -2.597763   0.507100   3.291745  -6.470645  25.556055 -10.137499  64.801506  -4.244531  13.791799   6.964674 -12.540226   3.027276  -7.813246   6.406989   0.392541   1.499963  -3.237448   3.841673  19.743084 -10.728904  45.663274  -0.005433  36.968207   0.005093   0.010646   7.336111   5.122345  -8.536078 -20.723105   0.363727 -21.395778 -17.565025  -9.163761   0.000319 -41.280969  -0.004896   3.584908  -5.168512  13.336912 -70.317832  -2.393827 -11.279423 108.716209   0.004679   0.000395 -33.502133  -8.672428  10.088617   4.299150  -0.002920  -0.003964 -43.821422 -16.965666  32.157974 122.237233   0.006216  -0.009931 -70.043474  -2.433052  -3.712892   3.235083  -0.001411  -0.001002
 -2.599938   0.509662   3.294581  -5.609475  25.448573 -10.025449  64.451085  -4.338020  14.118240   6.933870 -12.679819   3.355849  -7.739706   6.715301   0.119196   1.777850  -3.501119   3.659056  19.566849 -11.066492  45.269624  -0.004725  36.601862   0.005185   0.057837   7.515846   5.215805  -8.487783 -20.883181   0.740287 -21.540529 -17.204362  -9.021037   0.000129 -41.185615  -0.004844   3.606531  -5.230043  13.193831 -70.965018  -2.311685 -11.393690 108.754500   0.003647   0.000372 -33.765210  -9.128037   9.813323   4.548277  -0.002554  -0.004178 -44.332451 -16.765043  31.757830 121.582719   0.006875  -0.008140 -69.556882  -2.594798  -3.916999   3.584569  -0.001045  -0.002130
